<svg width="512" height="512" viewBox="0 0 512 512" fill="none" xmlns="http://www.w3.org/2000/svg">
<rect width="512" height="512" fill="#1E1E1E"/>
<rect width="512" height="512" fill="white"/>
<path d="M115 138C115 129.716 121.716 123 130 123H311C319.284 123 326 129.716 326 138V410C326 418.284 319.284 425 311 425H130C121.716 425 115 418.284 115 410V138Z" fill="url(#paint0_linear_0_1)"/>
<g filter="url(#filter0_d_0_1)">
<path d="M175 109C175 100.716 181.716 94 190 94H371C379.284 94 386 100.716 386 109V381C386 389.284 379.284 396 371 396H190C181.716 396 175 389.284 175 381V109Z" fill="url(#paint1_linear_0_1)"/>
</g>
<g clip-path="url(#clip0_0_1)">
<path d="M224.43 257.629C221.561 254.874 220.078 251.209 220.003 247.519C219.929 243.83 221.264 240.107 224.018 237.238C226.77 234.371 230.435 232.887 234.124 232.813C237.815 232.737 241.536 234.068 244.407 236.825L269.194 260.676L318.543 197.988L320.311 199.337L318.541 197.982C318.682 197.799 318.842 197.643 319.02 197.516C321.956 194.973 325.641 193.825 329.243 194.021V194.017L329.419 194.033C333.042 194.273 336.581 195.883 339.194 198.799C341.852 201.764 343.057 205.53 342.856 209.211H342.86L342.844 209.387C342.608 212.945 341.053 216.422 338.235 219.019L279.011 291.109L279.015 291.113C278.904 291.254 278.779 291.375 278.643 291.481C275.87 293.916 272.368 295.11 268.886 295.05C265.375 294.989 261.871 293.654 259.145 291.034L224.43 257.629Z" fill="white"/>
</g>
<defs>
<filter id="filter0_d_0_1" x="150" y="79" width="251" height="342" filterUnits="userSpaceOnUse" color-interpolation-filters="sRGB">
<feFlood flood-opacity="0" result="BackgroundImageFix"/>
<feColorMatrix in="SourceAlpha" type="matrix" values="0 0 0 0 0 0 0 0 0 0 0 0 0 0 0 0 0 0 127 0" result="hardAlpha"/>
<feOffset dx="-5" dy="5"/>
<feGaussianBlur stdDeviation="10"/>
<feComposite in2="hardAlpha" operator="out"/>
<feColorMatrix type="matrix" values="0 0 0 0 0 0 0 0 0 0 0 0 0 0 0 0 0 0 0.25 0"/>
<feBlend mode="normal" in2="BackgroundImageFix" result="effect1_dropShadow_0_1"/>
<feBlend mode="normal" in="SourceGraphic" in2="effect1_dropShadow_0_1" result="shape"/>
</filter>
<linearGradient id="paint0_linear_0_1" x1="254.5" y1="51" x2="320" y2="353" gradientUnits="userSpaceOnUse">
<stop stop-color="#E365D6"/>
<stop offset="1" stop-color="#FF87F3"/>
</linearGradient>
<linearGradient id="paint1_linear_0_1" x1="280.5" y1="94" x2="346" y2="396" gradientUnits="userSpaceOnUse">
<stop stop-color="#FF00E5"/>
<stop offset="1" stop-color="#FF5DEF"/>
</linearGradient>
<clipPath id="clip0_0_1">
<rect width="122.877" height="101.052" fill="white" transform="translate(220 194)"/>
</clipPath>
</defs>
</svg>
